<svg viewBox="0 0 72 58" fill="none" xmlns="http://www.w3.org/2000/svg">
  <path
    fill-rule="evenodd"
    clip-rule="evenodd"
    d="M56.147 0v18.822C45.894 18.662 37.503 10.264 37.343 0zM17.373 19.986c.16 10.294 8.54 18.663 18.811 18.822V19.986zm-3.258 27.546c0-.814.582-1.282 1.395-1.282s1.392.468 1.392 1.282-.577 1.27-1.392 1.27c-.816 0-1.395-.456-1.395-1.27m-4.238-.764h2.688v9.107H9.878zm21.375 2.356c.886 0 1.675.333 2.23.962v-2.85h2.688v8.639h-2.687v-.79c-.553.64-1.343.974-2.231.974-2.035 0-3.588-1.234-3.588-3.467s1.552-3.468 3.587-3.468m-1.024 3.468c0 .887.541 1.715 1.725 1.715 1.27 0 1.764-.753 1.764-1.715s-.494-1.715-1.764-1.715c-1.181 0-1.725.828-1.725 1.715m-6.78-3.466c-1.268 0-2.046.667-2.306 1.013v-.84h-2.687v6.576h2.687V52.26c0-.74.334-1.296 1.258-1.296s1.22.568 1.22 1.296v3.615h2.687v-4.232c0-1.677-1.047-2.517-2.859-2.517m-6.596.173h-2.687v6.576h2.688zM72 49.296v1.52h-1.924v2.43c0 .926.605.926 1.924.814v1.827a12 12 0 0 1-1.541.099c-2.48 0-3.07-.778-3.07-2.74v-2.43h-1.22v-1.52h1.22v-1.703h2.687v1.703zm-10.996-.17c-2.034 0-4.303.925-4.303 3.468s2.269 3.468 4.303 3.468c2.035 0 4.29-.925 4.29-3.468s-2.269-3.468-4.29-3.468m0 5.183c-1.257 0-1.725-.826-1.725-1.715s.468-1.715 1.725-1.715 1.714.828 1.714 1.715-.468 1.715-1.714 1.715M2.69 50.089c.555-.63 1.342-.963 2.23-.963 2.034 0 3.598 1.235 3.598 3.468s-1.564 3.468-3.6 3.468c-.886 0-1.675-.334-2.23-.975v.79H0V47.24h2.69zm-.234 2.505c0 .963.506 1.715 1.775 1.715 1.184 0 1.713-.828 1.713-1.715s-.529-1.715-1.713-1.715c-1.27 0-1.775.752-1.775 1.715m49.536-3.468c-.889 0-1.678.334-2.231.963v-.79h-2.687v8.639h2.687v-2.85c.555.64 1.345.974 2.231.974 2.035 0 3.6-1.235 3.6-3.468s-1.565-3.468-3.6-3.468m-.69 5.183c-1.27 0-1.775-.752-1.775-1.715s.506-1.715 1.775-1.715c1.184 0 1.714.828 1.714 1.715s-.53 1.715-1.714 1.715m-9.868-3.693c-.886 0-1.22.15-1.22.483 0 .455 1.696.572 1.801.58h.011c1.995.234 3.681.432 3.681 2.121 0 1.692-1.567 2.26-4.143 2.26-2.773 0-4.167-.753-4.167-2.321h2.813c0 .64.567.814 1.48.814.8 0 1.233-.135 1.233-.518 0-.427-.56-.502-1.694-.656q-.319-.042-.698-.097c-1.837-.272-2.86-.532-2.86-1.975s1.307-2.183 3.787-2.183c2.824 0 3.909.913 3.909 2.171h-2.676c0-.433-.37-.679-1.257-.679M36.182 0C25.926.16 17.535 8.558 17.375 18.822h18.802L36.184 0zm19.94 19.986c-.169 10.254-8.554 18.647-18.8 18.812l.016-18.812z"
    fill="currentColor"
  />
</svg>
