<svg viewBox="0 0 425.2 108.1" xmlns="http://www.w3.org/2000/svg"><path clip-rule="evenodd" d="m182.3 50.5h16.9v7.2h-25.2v-34h8.2v26.8zm-42.1 7.2h25.6v-7.1h-17.4v-6.2h15.2v-7h-15.2v-6.5h17.4v-7.1h-25.6zm66.1 0h25.6v-7.1h-17.4v-6.2h15.2v-7h-15.2v-6.5h17.4v-7.1h-25.6zm-77.8-31.1c2.4 2.3 3.8 5.4 3.8 8.8 0 2.5-.9 5.1-2.9 8.2l-8.9 14.1h-9.2l6.4-10.1.1-.1h-.2c-7.4-.4-12.6-5.4-12.6-11.9 0-7.3 5.8-12.6 13.7-12.6 3.7 0 7.3 1.3 9.8 3.6zm-3.9 8.6c0-3.2-2.7-5.7-6-5.7s-6 2.6-6 5.7c0 3.2 2.7 5.7 6 5.7s6-2.5 6-5.7zm133.9 6.9-12.3-18.4h-6.1v34h8.2v-17.6l7.9 12.2h4.5l7.9-12.1v17.5h8.2v-34h-6.1zm100-11.1h10.9v26.7h8.2v-26.7h10.9v-7.3h-30zm53.8 6.8-4.8-1.1c-2.4-.5-4-1.3-4-3.4 0-1.1.5-2 1.4-2.7.9-.6 2.1-.9 3.6-.9 3.2 0 5.1 1.5 5.7 4.3h8.3c-.3-2.6-2.2-11-14.5-11-4 0-7.3 1-9.7 3s-3.7 4.8-3.7 8c0 5.3 3.1 8.5 9.8 9.9l5.6 1.3c2.5.5 3.7 1.5 3.7 3.1 0 2-1.8 3.2-5 3.2-4 0-6.7-1.8-7.3-4.8h-8.2c.4 3.9 2.1 6.9 5.1 9 2.6 1.9 6.2 2.8 10.2 2.8 8.5 0 14.1-4.3 14.1-11-.1-5.3-3.1-8.2-10.3-9.7zm-126.1 19.9h25.6v-7.1h-17.4v-6.2h15.2v-7h-15.2v-6.5h17.4v-7.1h-25.6zm56.9-14.4-16.7-19.5h-6.3v34h8.2v-19l16.6 19h6.4v-34h-8.2zm-223.4 50.5h4.9c-.6 5-4.4 8.3-9.6 8.3-5.8 0-10.1-4.2-10.1-10s4.4-10 10.1-10c5.2 0 9 3.4 9.6 8.3h-4.9c-.5-2.4-2.2-3.9-4.7-3.9-3.1 0-5.3 2.3-5.3 5.5s2.2 5.5 5.3 5.5c2.5.2 4.2-1.3 4.7-3.7zm15 14.3h-4.8l2.6-6.1-6.5-13.9h4.8l3.9 8.4 3.5-8.4h4.8zm25.5-13.1c0 4.1-3.1 7.1-6.8 7.1-1.5 0-2.7-.4-3.7-1v.7h-4.6v-20h4.6v7.1c1-.6 2.2-1 3.7-1 3.7 0 6.8 3 6.8 7.1zm-4.4 0c0-1.9-1.4-3.4-3.2-3.4-1 0-2 .3-2.8 1.3v4.3c.8 1 1.8 1.2 2.8 1.2 1.8 0 3.2-1.5 3.2-3.4zm20.4 1.1h-9.7c.3 1.4 1.2 2.4 3.1 2.4 1 0 1.7-.4 2.1-1h4.5c-.7 2.8-3.3 4.7-6.7 4.7-4.5 0-7.5-3.1-7.5-7.2 0-4.2 2.9-7.2 7.2-7.2 4 0 7 2.7 7 7 .1.4 0 .9 0 1.3zm-9.7-2.6h5.4c-.3-1.5-1.2-2.3-2.6-2.3-1.5 0-2.5.9-2.8 2.3zm21.3-1.3c-2.2.1-3.6.7-4.7 1.7v7.8h-4.6v-13.6h4.6v1.5c1.2-1 2.7-1.7 4.7-1.7zm25-3.6h-4.8c-.3-1.4-1.1-2.6-3.2-2.6-1.7 0-2.8.7-2.8 2 0 1.1.8 1.6 2.3 1.9l2.7.6c3.5.8 5.8 2.2 5.8 5.5 0 3.8-3.2 6.2-7.9 6.2-4.3 0-8.2-2.1-8.6-6.8h4.8c.3 1.7 1.7 2.8 4 2.8 1.7 0 2.7-.7 2.7-1.7 0-.7-.4-1.4-2-1.7l-3.2-.7c-3.8-.8-5.5-2.5-5.5-5.6 0-3.8 3.1-6.2 7.6-6.2 3-.1 7.7 1.1 8.1 6.3zm16.2 7.5h-9.7c.3 1.4 1.2 2.4 3.1 2.4 1 0 1.7-.4 2.1-1h4.5c-.7 2.8-3.3 4.7-6.7 4.7-4.5 0-7.5-3.1-7.5-7.2 0-4.2 2.9-7.2 7.2-7.2 4 0 7 2.7 7 7 .1.4.1.9 0 1.3zm-9.7-2.6h5.4c-.3-1.5-1.2-2.3-2.6-2.3-1.5 0-2.4.9-2.8 2.3zm21.8 2.7h4.3c-.3 3.5-3.2 5.9-7 5.9-4.3 0-7.5-3-7.5-7.2 0-4.1 3.2-7.1 7.5-7.1 3.8 0 6.7 2.4 7 5.9h-4.3c-.2-1.2-1.3-2.1-2.7-2.1-2 0-3.1 1.4-3.1 3.3s1.2 3.3 3.1 3.3c1.4 0 2.4-.8 2.7-2zm20.6 5.6h-4.6v-.9c-1.1.8-2.3 1.3-3.7 1.3-3.5 0-5.8-2.4-5.8-6.3v-7.8h4.6v7.1c0 1.9 1 2.9 2.5 2.9.8 0 1.7-.5 2.5-1.4v-8.6h4.6v13.7zm12.4-9.6c-2.2.1-3.6.7-4.7 1.7v7.8h-4.6v-13.6h4.6v1.5c1.2-1 2.7-1.7 4.7-1.7zm1.9-8.8c0-1.5 1.2-2.6 2.7-2.6s2.7 1.1 2.7 2.6-1.2 2.6-2.7 2.6-2.7-1.1-2.7-2.6zm5 4.7v13.7h-4.6v-13.7zm14.1 13.4c-1.8.6-2.8.7-4.1.7-3.3 0-5.5-2.4-5.5-6.1v-4.1h-2.7v-3.9h2.7v-4.6h4.6v4.6h4.6v3.9h-4.7v4c0 1.4.8 2.1 2.1 2.1.6 0 1.4-.1 2.4-.3zm9.2 6.6h-4.8l2.6-6.1-6.5-13.8h4.8l3.9 8.4 3.5-8.4h4.8zm-304.3-108.1v81.8h81.8v-81.8zm61.9 60.8h-42v-4h42zm-17-17 2.8-2.8 5.6 5.6h8.5v4h-10.2zm17-14.5h-9.2l-21.2 21.2h-11.6v-6h9.1l8.3-8.3-8.9-8.9h-8.5v-4h10.1l10.1 10.1 10.1-10.1h11.7z" fill="#000505" fill-rule="evenodd"/></svg>