<svg viewBox="0 0 185.1 79.4" xmlns="http://www.w3.org/2000/svg"><path d="m49.6 19.8c-.9 0-1.8.2-2.6.6l-10.4-10.7v-2.3h7.5c.7 2.3 2.9 4 5.4 4 3.1 0 5.7-2.6 5.7-5.7s-2.5-5.7-5.6-5.7c-2.6 0-4.7 1.7-5.4 4h-7.5v-3.4h-18v3.4h-7.5c-.7-2.3-2.9-4-5.4-4-3.2 0-5.8 2.6-5.8 5.7s2.6 5.7 5.7 5.7c2.6 0 4.7-1.7 5.4-4h7.5v2.3l-10.3 10.7c-.8-.4-1.7-.6-2.6-.6-3.1 0-5.7 2.6-5.7 5.7s2.6 5.7 5.7 5.7 5.7-2.6 5.7-5.7c0-1-.2-1.9-.7-2.7l8-8.2v3.9h2l-9.7 21.3h-.7c-3.1 0-5.7 2.6-5.7 5.7s2.6 5.7 5.7 5.7 5.7-2.6 5.7-5.7c0-1.7-.7-3.2-1.9-4.2l10.4-22.7h1.5v31.9c-2.3.7-4 2.9-4 5.4 0 3.1 2.6 5.7 5.7 5.7s5.7-2.6 5.7-5.7c0-2.6-1.7-4.7-4-5.4v-32h1.5l10.4 22.7c-1.2 1-1.9 2.6-1.9 4.2 0 3.1 2.6 5.7 5.7 5.7s5.7-2.6 5.7-5.7-2.6-5.7-5.7-5.7h-.7l-9.7-21.3h2v-3.9l8 8.2c-.4.8-.7 1.7-.7 2.7 0 3.1 2.6 5.7 5.7 5.7s5.7-2.6 5.7-5.7-2.7-5.6-5.8-5.6zm0-16.4c1.3 0 2.3 1 2.3 2.3s-1 2.3-2.3 2.3-2.3-1-2.3-2.3 1-2.3 2.3-2.3zm-43.9 4.6c-1.3 0-2.3-1-2.3-2.3s1-2.3 2.3-2.3 2.3 1 2.3 2.3-1 2.3-2.3 2.3zm0 19.8c-1.3 0-2.3-1-2.3-2.3s1-2.3 2.3-2.3 2.3 1 2.3 2.3-1 2.3-2.3 2.3zm4.5 20c-1.3 0-2.3-1-2.3-2.3s1-2.3 2.3-2.3 2.3 1 2.3 2.3-1 2.3-2.3 2.3zm17.4 10.4c-1.3 0-2.3-1-2.3-2.3s1-2.3 2.3-2.3 2.3 1 2.3 2.3-1 2.3-2.3 2.3zm19.8-12.7c0 1.3-1 2.3-2.3 2.3s-2.3-1-2.3-2.3 1-2.3 2.3-2.3 2.3 1 2.3 2.3zm-25.3-41.5h11.1v11.1h-11.1zm27.5 23.8c-1.3 0-2.3-1-2.3-2.3s1-2.3 2.3-2.3 2.3 1 2.3 2.3-1 2.3-2.3 2.3z" fill="#5054a1"/><path d="m25.5 7.4h4.4v4.4h-4.4zm64.8.7c0 4-3 7.5-7.5 7.5-4.6 0-7.5-3.4-7.5-7.5 0-4.2 2.9-7.6 7.5-7.6 4.5-.1 7.5 3.3 7.5 7.6zm-4 0c0-2.4-1.4-4.2-3.6-4.2s-3.6 1.8-3.6 4.2 1.4 4.1 3.6 4.1c2.3-.1 3.6-1.8 3.6-4.1zm17.3-2.5c0 3.7-2.7 5.4-5.2 5.4h-2v4.4h-3.9v-14.8h5.8c3.2 0 5.3 2.3 5.3 5zm-7.2 1.9h1.7c1.1 0 1.7-.8 1.7-1.7 0-1-.6-1.7-1.7-1.7h-1.7zm20.3 7.8h-11.2v-14.7h11v3.4h-7.1v2.2h5.1v3.4h-5.1v2.2h7.2v3.5zm6-14.7 5 4.8v-4.8h3.9v14.7h-3.9v-4.8l-4.8-4.5v9.4h-3.9v-14.8h3.7zm-36.3 33.3c0 3.3-3.4 4.7-5.9 4.7-3.3 0-5.5-1.6-5.5-1.6l1.4-3.1s2 1.3 3.9 1.3c1.2 0 2-.3 2-1 0-1.9-6.9-1.3-6.9-6.3 0-3 3-4.4 5.6-4.4 2.9 0 4.8 1 4.8 1l-1.2 3.3s-1.9-.9-3.4-.9c-.9 0-1.7.2-1.7.9 0 1.5 6.9 1.2 6.9 6.1zm16.2-2.8c0 4-3 7.5-7.5 7.5-4.6 0-7.5-3.4-7.5-7.5 0-4.2 2.9-7.6 7.5-7.6 4.6-.1 7.5 3.3 7.5 7.6zm-3.9 0c0-2.4-1.4-4.2-3.6-4.2s-3.6 1.8-3.6 4.2 1.4 4.1 3.6 4.1c2.2-.1 3.6-1.8 3.6-4.1zm14.4-7.5h3.9v9.2c0 3.4-3.1 5.7-6.2 5.7s-6.2-2.2-6.2-5.7v-9.2h3.9v9.1c0 1.6 1.1 2.4 2.3 2.4s2.3-.9 2.3-2.4zm10.7 10.2v4.6h-3.9v-14.8h5.8c3.2 0 5.3 2.3 5.3 5 0 2.4-1.2 3.8-2.4 4.5l3.3 5.3h-4.6l-2.6-4.6zm3.3-5.1c0-.8-.6-1.6-1.7-1.6h-1.7v3.3h1.7c1.2-.1 1.7-.9 1.7-1.7zm18.5 8.7s-2.1 1.1-4.9 1.1c-4.6 0-7.5-3.4-7.5-7.5 0-4.2 2.9-7.6 7.5-7.6 2.9 0 4.8.9 4.8.9l-1.2 3.3s-1.8-.8-3.4-.8c-2.5 0-3.7 1.9-3.7 4.2s1.2 4.1 3.7 4.1c1.6 0 3.6-.9 3.6-.9zm13.3.9h-11.2v-14.7h11v3.4h-7.1v2.2h5.1v3.4h-5.1v2.2h7.2v3.5zm-78.9 23h-3.9v-14.7h10.4v3.4h-6.5v2.2h4.9v3.4h-4.9zm8.2-14.7h3.9v14.7h-3.9zm10.9 10.2v4.6h-3.9v-14.8h5.8c3.2 0 5.3 2.3 5.3 5 0 2.4-1.2 3.8-2.4 4.5l3.3 5.3h-4.6l-2.6-4.6zm3.3-5.1c0-.8-.6-1.6-1.7-1.6h-1.7v3.3h1.7c1.2-.1 1.7-.9 1.7-1.7zm17.6 9.6v-8.7l-2.3 3.3h-2.1l-2.3-3.3v8.7h-3.9v-14.7h3.8l3.5 4.8 3.5-4.8h3.8v14.7zm6.6-14.7h3.9l.6 10h.1l1.9-4.2h2.9l1.8 4.2h.1l.7-10h3.9l-1.6 14.7h-3.6l-2.7-5.3h-.1l-2.6 5.3h-3.6zm30.3 14.7h-3.9v-4.2h-4.2v4.2h-3.9v-9.3c0-3.4 3-5.7 6-5.7s6 2.4 6 5.7zm-3.9-9c0-1.6-1-2.4-2.1-2.4s-2.1.8-2.1 2.4v1.3h4.2zm10.7 4.5v4.6h-3.9v-14.8h5.8c3.2 0 5.3 2.3 5.3 5 0 2.4-1.2 3.8-2.4 4.5l3.3 5.3h-4.6l-2.6-4.6zm3.3-5.1c0-.8-.6-1.6-1.7-1.6h-1.7v3.3h1.7c1.2-.1 1.7-.9 1.7-1.7zm18.1 9.6h-11.2v-14.7h11v3.4h-7.1v2.2h5.1v3.4h-5.1v2.2h7.2v3.5z" fill="#ec6566"/><path d="m106.2 79.2h-1.8v-8.8h5.9v1.6h-4.1v2h3.1v1.6h-3.1zm13.4-4.3c0 2.4-1.7 4.5-4.4 4.5s-4.4-2-4.4-4.5 1.7-4.6 4.4-4.6 4.4 2 4.4 4.6zm-1.9 0c0-1.7-1-3-2.6-3s-2.6 1.3-2.6 3 1 2.9 2.6 2.9 2.6-1.2 2.6-2.9zm8.7-4.5h1.8v5.6c0 2-1.8 3.3-3.6 3.3s-3.6-1.3-3.6-3.3v-5.6h1.8v5.4c0 1.3.8 2 1.8 2s1.8-.7 1.8-2zm9.2 3.6v-3.6h1.8v8.8h-1.8v-2.9l-3.7-3.5h-.1v6.4h-1.8v-8.8h1.7zm6.4-3.6c2.9 0 4.6 1.8 4.6 4.4s-1.7 4.4-4.6 4.4h-2.5v-8.8zm-.2 7.3c2.1 0 2.9-1.1 2.9-2.8 0-1.8-.9-2.8-2.9-2.8h-.6v5.7h.6zm13.2 1.5h-1.8v-2.8h-3.4v2.8h-1.8v-5.7c0-2 1.7-3.3 3.5-3.3s3.5 1.4 3.5 3.3zm-1.8-5.5c0-1.3-.7-2-1.7-2s-1.7.7-1.7 2v1.1h3.4zm9.6-3.3v1.6h-2.8v7.2h-1.8v-7.2h-2.7v-1.6zm1.2 0h1.8v8.8h-1.8zm12.2 4.5c0 2.4-1.7 4.5-4.4 4.5s-4.4-2-4.4-4.5 1.7-4.6 4.4-4.6 4.4 2 4.4 4.6zm-1.8 0c0-1.7-1-3-2.6-3s-2.6 1.3-2.6 3 1 2.9 2.6 2.9 2.6-1.2 2.6-2.9zm8.9-.9v-3.6h1.8v8.8h-1.8v-2.9l-3.7-3.5h-.1v6.4h-1.8v-8.8h1.7zm-86 0h-21.2v1.6h21.3v-1.6z" fill="#5054a1"/></svg>